<?xml version="1.0" encoding="UTF-8"?>
<svg version="1.1" xmlns="http://www.w3.org/2000/svg" width="181" height="138">
<path d="M0 0 C59.73 0 119.46 0 181 0 C181 45.54 181 91.08 181 138 C121.27 138 61.54 138 0 138 C0 92.46 0 46.92 0 0 Z " fill="#FEFDFD" transform="translate(0,0)"/>
<path d="M0 0 C0 1.65 0 3.3 0 5 C1.010625 4.34 2.02125 3.68 3.0625 3 C6.80052951 0.85747089 9.66582754 0.49009736 14 1 C14.99 1.99 14.99 1.99 16 3 C14.88625 3.474375 13.7725 3.94875 12.625 4.4375 C1.99939443 9.81635895 -4.28988392 17.86965175 -8 29 C-8.95859019 42.35179187 -8.09158318 53.05998013 0.625 63.875 C7.17015307 70.70580491 15.02991055 74.58379948 24.41796875 75.23828125 C32.4055492 75.39554967 38.84814408 74.88011843 46 71 C47.03125 70.443125 48.0625 69.88625 49.125 69.3125 C52.58550906 66.52904706 55.16206673 63.33233047 57.875 59.828125 C60 58 60 58 63.25 57.734375 C64.1575 57.82203125 65.065 57.9096875 66 58 C64.68 60.64 63.36 63.28 62 66 C66.29 65.67 70.58 65.34 75 65 C74.01 63.02 73.02 61.04 72 59 C79.42587438 59.3228641 85.73572625 62.56500063 90.8671875 67.96484375 C92.38499793 69.93195628 93.73730727 71.86010952 95 74 C95.53882813 74.90105469 96.07765625 75.80210938 96.6328125 76.73046875 C98.31422238 80.75144039 98.49833638 84.00173972 98.4375 88.3125 C98.42505249 89.44353149 98.42505249 89.44353149 98.41235352 90.59741211 C98.14151309 99.52743542 95.11843759 105.64835015 89.0703125 112.20703125 C83.35784609 117.15424273 76.22676227 120.10654157 68.70875549 120.16062927 C67.61130508 120.1706749 66.51385468 120.18072052 65.38314819 120.19107056 C64.17848907 120.19690155 62.97382996 120.20273254 61.73266602 120.20874023 C60.46403214 120.21852402 59.19539825 120.2283078 57.88832092 120.23838806 C53.6768804 120.26976249 49.46542028 120.29004836 45.25390625 120.30859375 C44.17715075 120.31353973 44.17715075 120.31353973 43.07864261 120.31858563 C36.30023432 120.349382 29.52182143 120.37607426 22.74336338 120.39300442 C14.0936687 120.41486522 5.44459839 120.45673246 -3.2048468 120.52644199 C-9.29676042 120.57385683 -15.38850674 120.59796166 -21.48059899 120.6052013 C-25.11305908 120.61013411 -28.74481547 120.6249835 -32.37707329 120.6649456 C-36.44113013 120.70906625 -40.50382607 120.7048768 -44.56811523 120.69702148 C-46.34777679 120.7270224 -46.34777679 120.7270224 -48.16339111 120.75762939 C-58.19987464 120.67098654 -66.34099704 117.4339655 -73.9375 110.8125 C-80.5780049 103.35820774 -82.87349612 95.24654045 -82.484375 85.3671875 C-81.22570122 76.61737461 -75.98857117 68.73668639 -68.9453125 63.4609375 C-63.66689944 60 -63.66689944 60 -60 60 C-60.05800781 58.98421875 -60.11601563 57.9684375 -60.17578125 56.921875 C-60.55205852 47.48962798 -59.62947298 40.44613773 -55 32 C-54.25556641 30.59814453 -54.25556641 30.59814453 -53.49609375 29.16796875 C-45.32190056 15.08472023 -31.66660344 5.73509963 -16.25 1 C-10.84268327 -0.27661463 -5.5260891 -0.28859653 0 0 Z " fill="#A893DB" transform="translate(82,17)"/>
<path d="M0 0 C7.83831081 4.26626257 13.16950192 9.48047885 17.42578125 17.3203125 C17.83957031 18.08085938 18.25335938 18.84140625 18.6796875 19.625 C23.00692789 28.82227053 22.71760675 38.55053004 19.48828125 48.0703125 C15.42287692 57.48735077 8.61209022 64.76419959 -0.57421875 69.3203125 C-1.74984375 69.9184375 -2.92546875 70.5165625 -4.13671875 71.1328125 C-12.1899394 73.91801727 -22.63816784 73.54376353 -30.52734375 70.35546875 C-40.97864906 65.06998038 -48.44587725 57.93477364 -52.69140625 46.87109375 C-54.96890239 37.7107221 -55.42781737 26.49195018 -50.6953125 18.05859375 C-50.32535156 17.48496094 -49.95539063 16.91132812 -49.57421875 16.3203125 C-49.01734375 15.3096875 -48.46046875 14.2990625 -47.88671875 13.2578125 C-36.24445717 -1.53100627 -17.72455805 -7.69229682 0 0 Z " fill="#FECA4E" transform="translate(126.57421875,20.6796875)"/>
<path d="M0 0 C0 4.95 0 9.9 0 15 C-3.54997152 13.58001139 -6.18729934 12.3878411 -9.3125 10.375 C-10.00988281 9.92898437 -10.70726562 9.48296875 -11.42578125 9.0234375 C-11.94527344 8.68570313 -12.46476562 8.34796875 -13 8 C-10.83676753 5.68757908 -8.62352196 3.9843604 -5.9375 2.3125 C-5.24527344 1.87550781 -4.55304687 1.43851563 -3.83984375 0.98828125 C-2 0 -2 0 0 0 Z " fill="#F6C75A" transform="translate(68,48)"/>
<path d="M0 0 C5.09641312 1.69880437 8.51562998 3.30937799 13 6 C13 6.66 13 7.32 13 8 C11.21118264 9.00508801 9.41885304 10.00392736 7.625 11 C6.62726563 11.556875 5.62953125 12.11375 4.6015625 12.6875 C2 14 2 14 0 14 C0 9.38 0 4.76 0 0 Z " fill="#FBCC5C" transform="translate(82,8)"/>
<path d="M0 0 C5.09641312 1.69880437 8.51562998 3.30937799 13 6 C13 6.66 13 7.32 13 8 C11.21118264 9.00508801 9.41885304 10.00392736 7.625 11 C6.62726563 11.556875 5.62953125 12.11375 4.6015625 12.6875 C2 14 2 14 0 14 C0 9.38 0 4.76 0 0 Z " fill="#F7C85A" transform="translate(82,89)"/>
<path d="M0 0 C0 4.62 0 9.24 0 14 C-4.3785374 12.24858504 -7.97072742 10.37016034 -12 8 C-10.77974937 4.3392481 -9.873509 4.07660559 -6.5625 2.3125 C-5.75941406 1.87550781 -4.95632812 1.43851563 -4.12890625 0.98828125 C-2 0 -2 0 0 0 Z " fill="#FFCD56" transform="translate(138,8)"/>
<path d="M0 0 C0 4.62 0 9.24 0 14 C-4.3785374 12.24858504 -7.97072742 10.37016034 -12 8 C-10.77974937 4.3392481 -9.873509 4.07660559 -6.5625 2.3125 C-5.75941406 1.87550781 -4.95632812 1.43851562 -4.12890625 0.98828125 C-2 0 -2 0 0 0 Z " fill="#F9C854" transform="translate(138,89)"/>
<path d="M0 0 C3.6607519 1.22025063 3.92339441 2.126491 5.6875 5.4375 C6.34298828 6.64212891 6.34298828 6.64212891 7.01171875 7.87109375 C8 10 8 10 8 12 C3.38 12 -1.24 12 -6 12 C-4.24858504 7.6214626 -2.37016034 4.02927258 0 0 Z " fill="#FFCD56" transform="translate(109,1)"/>
<path d="M0 0 C4.62 0 9.24 0 14 0 C12.24858504 4.3785374 10.37016034 7.97072742 8 12 C7.34 12 6.68 12 6 12 C4.02 8.04 2.04 4.08 0 0 Z " fill="#FBC952" transform="translate(103,98)"/>
<path d="M0 0 C4.03438972 3.45804833 5.78771567 7.25939073 8 12 C3.38 12 -1.24 12 -6 12 C-4.35649921 7.06949764 -2.93391654 4.10748316 0 0 Z " fill="#FBC952" transform="translate(69,71)"/>
<path d="M0 0 C4.03438972 3.45804833 5.78771567 7.25939073 8 12 C3.38 12 -1.24 12 -6 12 C-4.24858504 7.6214626 -2.37016034 4.02927258 0 0 Z " fill="#FCCA51" transform="translate(150,71)"/>
<path d="M0 0 C4.62 0 9.24 0 14 0 C12.02 3.63 10.04 7.26 8 11 C7.01 11 6.02 11 5 11 C4.16151196 9.54462432 3.32936066 8.08559627 2.5 6.625 C1.80390625 5.40683594 1.80390625 5.40683594 1.09375 4.1640625 C0 2 0 2 0 0 Z " fill="#FBC951" transform="translate(63,28)"/>
<path d="M0 0 C4.62 0 9.24 0 14 0 C8.25 10.875 8.25 10.875 6 12 C4.99466333 10.37829621 3.99588093 8.75252763 3 7.125 C2.443125 6.22007813 1.88625 5.31515625 1.3125 4.3828125 C0 2 0 2 0 0 Z " fill="#FFCC51" transform="translate(144,28)"/>
<path d="M0 0 C4.93050236 1.64350079 7.89251684 3.06608346 12 6 C9.20803989 9.28465896 5.76803183 11.01321958 2 13 C1.34 13 0.68 13 0 13 C0 8.71 0 4.42 0 0 Z " fill="#FFCC50" transform="translate(153,49)"/>
<path d="M0 0 C1.98 0 3.96 0 6 0 C5.67 0.66 5.34 1.32 5 2 C7.475 2.99 7.475 2.99 10 4 C9.67 4.66 9.34 5.32 9 6 C8.08476563 5.98839844 7.16953125 5.97679688 6.2265625 5.96484375 C5.03804687 5.95582031 3.84953125 5.94679688 2.625 5.9375 C0.84996094 5.92009766 0.84996094 5.92009766 -0.9609375 5.90234375 C-3.91921521 5.78533407 -3.91921521 5.78533407 -6 7 C-6 6.01 -6 5.02 -6 4 C-3.69 3.34 -1.38 2.68 1 2 C0.67 1.34 0.34 0.68 0 0 Z " fill="#B8A9D4" transform="translate(108,93)"/>
</svg>
