<?xml version="1.0" encoding="UTF-8"?>
<svg version="1.1" xmlns="http://www.w3.org/2000/svg" width="181" height="138">
<path d="M0 0 C4.49797113 1.68673918 8.72886302 3.81673892 13 6 C12.67 7.32 12.34 8.64 12 10 C15.36553818 10.88907787 15.36553818 10.88907787 18.76171875 10.546875 C28.95828268 8.05556793 39.32235693 10.01229089 48.2109375 15.3203125 C57.71128516 21.9814758 63.70457043 30.56575735 66 42 C66.74076354 50.85273149 65.63431245 57.90392004 62 66 C63.32 66.33 64.64 66.66 66 67 C66.33 65.68 66.66 64.36 67 63 C70 64 70 64 72 67 C74.60105112 68.20764814 74.60105112 68.20764814 77.625 69.25 C87.12689656 73.07351766 92.93226375 78.55517033 97 88 C99.69540115 96.20715093 98.90320996 106.09239175 95.24609375 113.82421875 C90.7118271 121.74141789 83.99067194 126.844022 75.17269325 129.56355572 C72.62173453 130.07598486 70.25387492 130.13536254 67.65097046 130.14717102 C66.56608337 130.15432632 65.48119629 130.16148163 64.36343384 130.16885376 C63.17792938 130.17154266 61.99242493 130.17423157 60.77099609 130.17700195 C59.51851074 130.18357315 58.26602539 130.19014435 56.97558594 130.19691467 C52.82486735 130.21664722 48.6741874 130.22831521 44.5234375 130.23828125 C43.09102993 130.24233082 41.65862255 130.24644781 40.22621536 130.25063133 C33.49327938 130.26967617 26.76035429 130.28390692 20.02739656 130.2922433 C12.27339813 130.30200401 4.51968605 130.32829572 -3.23421156 130.36874419 C-9.23864748 130.39898373 -15.24300169 130.41371969 -21.24751222 130.41702431 C-24.82830109 130.41936648 -28.40878382 130.4282168 -31.98949051 130.45348549 C-35.99138406 130.48127038 -39.99264479 130.47691128 -43.99462891 130.4699707 C-45.16798798 130.48278076 -46.34134705 130.49559082 -47.55026245 130.50878906 C-58.34620424 130.44075073 -67.00493411 127.37045136 -75 120 C-80.71357424 114.21203026 -82.87799826 106.29945062 -83.0625 98.28515625 C-82.31042748 88.11650906 -78.70467849 80.8029261 -71 74 C-69.3767138 73.20237272 -67.73037905 72.44960477 -66.0625 71.75 C-63.73065112 70.72219976 -63.73065112 70.72219976 -62 69 C-61.24364784 65.76955614 -61.18585166 62.79145702 -61.1484375 59.4765625 C-60.5544506 45.56476411 -51.69885861 33.32220391 -42 24 C-30.06356623 14.07228648 -15.58451713 8.62423119 0 9 C0 6.03 0 3.06 0 0 Z " fill="#A994DB" transform="translate(83,8)"/>
<path d="M0 0 C8.3565369 6.84962041 13.60131498 14.54673722 15.75 25.25 C16.5575833 34.90128234 15.93140121 44.25554855 9.5 51.9375 C8.5925 52.700625 7.685 53.46375 6.75 54.25 C6.17378906 54.87519531 5.59757812 55.50039062 5.00390625 56.14453125 C-1.41773036 63.10884137 -9.00243206 67.87180031 -18.60546875 68.453125 C-31.45776788 68.61033967 -40.44563921 66.25511902 -50.1953125 57.50390625 C-58.42872514 48.93189006 -60.94694232 39.28657792 -60.77807617 27.70068359 C-60.51712444 21.85760688 -59.45479902 17.21911346 -56.25 12.25 C-55.693125 11.239375 -55.13625 10.22875 -54.5625 9.1875 C-41.13133805 -7.87370572 -18.44926162 -12.93568918 0 0 Z " fill="#FECB4F" transform="translate(133.25,24.75)"/>
<path d="M0 0 C3 1 3 1 4.60546875 3.72265625 C6.0703125 6.81510417 7.53515625 9.90755208 9 13 C3.72 13 -1.56 13 -7 13 C-5.58001139 9.45002848 -4.3878411 6.81270066 -2.375 3.6875 C-1.92898437 2.99011719 -1.48296875 2.29273438 -1.0234375 1.57421875 C-0.51683594 0.79498047 -0.51683594 0.79498047 0 0 Z " fill="#FFD674" transform="translate(110,1)"/>
<path d="M0 0 C0 4.95 0 9.9 0 15 C-5.09641312 13.30119563 -8.51562998 11.69062201 -13 9 C-13 8.01 -13 7.02 -13 6 C-11.21118264 4.99491199 -9.41885304 3.99607264 -7.625 3 C-6.62726563 2.443125 -5.62953125 1.88625 -4.6015625 1.3125 C-2 0 -2 0 0 0 Z " fill="#FFD572" transform="translate(139,8)"/>
<path d="M0 0 C3.49397942 0.87349485 5.68637013 1.80541816 8.75 3.5625 C9.94882813 4.24505859 9.94882813 4.24505859 11.171875 4.94140625 C11.77515625 5.29074219 12.3784375 5.64007813 13 6 C12 9 12 9 9.27734375 10.60546875 C6.18489583 12.0703125 3.09244792 13.53515625 0 15 C0 10.05 0 5.1 0 0 Z " fill="#FFD56F" transform="translate(153,49)"/>
<path d="M0 0 C4.95 0 9.9 0 15 0 C13.70639401 3.23401498 12.44092886 6.2328399 10.875 9.3125 C10.52179688 10.00988281 10.16859375 10.70726562 9.8046875 11.42578125 C9.53914062 11.94527344 9.27359375 12.46476562 9 13 C8.01 13 7.02 13 6 13 C4.99491199 11.21118264 3.99607264 9.41885304 3 7.625 C2.1646875 6.12839844 2.1646875 6.12839844 1.3125 4.6015625 C0 2 0 2 0 0 Z " fill="#FFD46E" transform="translate(144,28)"/>
<path d="M0 0 C0 4.95 0 9.9 0 15 C-3.54997152 13.58001139 -6.18729934 12.3878411 -9.3125 10.375 C-10.00988281 9.92898437 -10.70726562 9.48296875 -11.42578125 9.0234375 C-11.94527344 8.68570313 -12.46476562 8.34796875 -13 8 C-10.83676753 5.68757908 -8.62352196 3.9843604 -5.9375 2.3125 C-5.24527344 1.87550781 -4.55304687 1.43851563 -3.83984375 0.98828125 C-2 0 -2 0 0 0 Z " fill="#F6C75A" transform="translate(68,48)"/>
<path d="M0 0 C5.09641312 1.69880437 8.51562998 3.30937799 13 6 C13 6.66 13 7.32 13 8 C11.21118264 9.00508801 9.41885304 10.00392736 7.625 11 C6.62726563 11.556875 5.62953125 12.11375 4.6015625 12.6875 C2 14 2 14 0 14 C0 9.38 0 4.76 0 0 Z " fill="#F7C85A" transform="translate(82,89)"/>
<path d="M0 0 C0 4.62 0 9.24 0 14 C-4.3785374 12.24858504 -7.97072742 10.37016034 -12 8 C-10.77974937 4.3392481 -9.873509 4.07660559 -6.5625 2.3125 C-5.75941406 1.87550781 -4.95632812 1.43851562 -4.12890625 0.98828125 C-2 0 -2 0 0 0 Z " fill="#F9C854" transform="translate(138,89)"/>
<path d="M0 0 C3.23401498 1.29360599 6.2328399 2.55907114 9.3125 4.125 C10.00988281 4.47820313 10.70726563 4.83140625 11.42578125 5.1953125 C11.94527344 5.46085938 12.46476562 5.72640625 13 6 C12 9 12 9 10.29296875 9.87890625 C9.59816406 10.10449219 8.90335938 10.33007812 8.1875 10.5625 C5.24609688 11.53928865 2.82139507 12.58930247 0 14 C0 9.38 0 4.76 0 0 Z " fill="#FDCE5A" transform="translate(83,8)"/>
<path d="M0 0 C4.62 0 9.24 0 14 0 C12.24858504 4.3785374 10.37016034 7.97072742 8 12 C7.34 12 6.68 12 6 12 C4.02 8.04 2.04 4.08 0 0 Z " fill="#FBC952" transform="translate(103,98)"/>
<path d="M0 0 C4.03438972 3.45804833 5.78771567 7.25939073 8 12 C3.38 12 -1.24 12 -6 12 C-4.35649921 7.06949764 -2.93391654 4.10748316 0 0 Z " fill="#FBC952" transform="translate(69,71)"/>
<path d="M0 0 C0.99 0.33 1.98 0.66 3 1 C4.08301035 3.29598193 5.07796291 5.63477442 6 8 C6.66 9.32 7.32 10.64 8 12 C3.38 12 -1.24 12 -6 12 C-4.24858504 7.6214626 -2.37016034 4.02927258 0 0 Z " fill="#FDCB52" transform="translate(150,71)"/>
<path d="M0 0 C4.62 0 9.24 0 14 0 C12.02 3.63 10.04 7.26 8 11 C7.01 11 6.02 11 5 11 C4.16151196 9.54462432 3.32936066 8.08559627 2.5 6.625 C1.80390625 5.40683594 1.80390625 5.40683594 1.09375 4.1640625 C0 2 0 2 0 0 Z " fill="#FBC951" transform="translate(63,28)"/>
<path d="M0 0 C1.98 0 3.96 0 6 0 C5.67 0.66 5.34 1.32 5 2 C7.475 2.99 7.475 2.99 10 4 C9.67 4.66 9.34 5.32 9 6 C8.08476563 5.98839844 7.16953125 5.97679688 6.2265625 5.96484375 C5.03804687 5.95582031 3.84953125 5.94679688 2.625 5.9375 C0.84996094 5.92009766 0.84996094 5.92009766 -0.9609375 5.90234375 C-3.91921521 5.78533407 -3.91921521 5.78533407 -6 7 C-6 6.01 -6 5.02 -6 4 C-3.69 3.34 -1.38 2.68 1 2 C0.67 1.34 0.34 0.68 0 0 Z " fill="#B8A9D4" transform="translate(108,93)"/>
<path d="M0 0 C0.99 0.33 1.98 0.66 3 1 C3.6875 3.0625 3.6875 3.0625 4 5 C3.38125 4.814375 2.7625 4.62875 2.125 4.4375 C-0.04160178 3.76313824 -0.04160178 3.76313824 -2 5 C-1.34 3.35 -0.68 1.7 0 0 Z " fill="#FFD87B" transform="translate(110,1)"/>
</svg>
